<?xml version="1.0" encoding="UTF-8" standalone="no"?>
<svg width="462px" height="448px" viewBox="0 0 462 448" version="1.1" xmlns="http://www.w3.org/2000/svg" xmlns:xlink="http://www.w3.org/1999/xlink">
    <!-- Generator: Sketch 41.2 (35397) - http://www.bohemiancoding.com/sketch -->
    <title>Group</title>
    <desc>Created with Sketch.</desc>
    <defs></defs>
    <g id="Page-1" stroke="none" stroke-width="1" fill="none" fill-rule="evenodd">
        <g id="Desktop-HD" transform="translate(-490.000000, -247.000000)">
            <g id="Group" transform="translate(490.000000, 248.000000)">
                <path d="M230,24.2526865 C230,24.2526865 187.269918,-15.069541 134.341684,12.7066448 C81.4134513,40.4828306 77.6696058,145.232983 229.765817,250.569129 C396.042971,124.487108 372.742394,46.0759074 329.183842,12.7066448 C285.625291,-20.6626178 230,24.2526865 230,24.2526865 Z" id="Path" stroke="#EB4040" stroke-width="2" fill="#FFDADA"></path>
                <path d="M50.104,349.088 C50.104,347.864 49.024,346.856 47.8,346.856 C47.152,346.856 46.504,347.144 45.928,347.936 C43.912,350.672 40.384,352.112 36.712,352.112 C28.432,352.112 24.184,345.272 24.184,338.72 C24.184,330.728 29.656,325.112 36.712,325.112 C39.52,325.112 42.256,325.976 44.056,328.064 C44.92,329.072 44.704,329.936 44.776,331.448 C44.848,332.6 45.856,333.176 46.792,333.176 C47.872,333.176 48.88,332.6 48.88,331.376 L48.88,331.232 C48.808,329.576 48.808,328.424 48.808,327.344 C48.808,326.192 48.808,325.112 48.88,323.6 L48.88,323.456 C48.88,322.232 47.872,321.656 46.792,321.656 C46,321.656 45.136,322.016 45.064,322.88 C44.992,323.24 44.92,323.672 44.704,323.672 C44.56,323.672 44.488,323.6 44.344,323.528 C42.256,322.304 39.304,321.368 36.208,321.368 C27.136,321.368 20.008,328.928 20.008,339.008 C20.008,347.576 25.84,356 36.928,356 C44.704,356 50.104,351.176 50.104,349.088 Z M85.384,355.28 C86.608,355.28 87.328,354.272 87.328,353.264 C87.328,352.544 86.968,351.752 86.104,351.464 C83.224,350.456 82.72,348.728 82.72,343.472 C82.72,340.736 82.864,336.992 83.08,334.616 C83.152,333.896 83.152,333.248 83.152,332.6 C83.152,324.536 78.616,321.584 71.92,321.584 C65.728,321.584 59.68,324.68 59.68,327.416 C59.68,328.568 60.616,329.36 61.696,329.36 C62.2,329.36 62.776,329.144 63.208,328.64 C64.864,326.84 67.744,325.184 71.632,325.184 C77.464,325.184 79.12,328.28 79.12,332.24 C79.12,332.6 79.048,333.032 79.048,333.392 C79.048,333.896 78.76,334.112 77.896,334.256 C74.872,334.76 69.04,335.84 64.576,337.208 C59.248,338.864 56.872,342.536 56.872,346.136 C56.872,351.104 61.264,356.072 68.536,356.072 C72.712,356.072 77.32,353.984 79.48,350.528 C79.552,350.384 79.696,350.312 79.768,350.312 C79.912,350.312 79.984,350.456 80.056,350.672 C80.704,353.336 83.296,355.28 85.384,355.28 Z M68.464,352.256 C63.64,352.256 60.76,349.232 60.76,346.208 C60.76,341.168 66.736,339.728 78.04,337.928 L78.256,337.928 C78.76,337.928 78.976,338.144 78.976,338.72 L78.976,339.656 C78.976,350.744 72.136,352.256 68.464,352.256 Z M102.664,305.744 C102.664,304.016 101.368,302.36 99.136,302.36 C97.696,302.36 95.68,303.44 95.68,305.744 C95.68,309.2 98.704,309.2 99.064,309.2 C102.304,309.2 102.664,306.32 102.664,305.744 Z M106.408,355.208 C107.848,355.208 108.568,354.2 108.568,353.192 C108.568,351.104 106.624,351.176 106.336,351.176 C105.256,351.248 104.968,351.248 103.816,351.248 C102.952,351.248 102.52,350.6 102.52,349.88 L102.52,344.264 C102.52,339.008 102.592,333.536 102.664,328.496 L102.664,328.28 C102.664,325.256 101.296,322.376 97.336,322.376 C95.68,322.376 95.896,322.304 94.528,322.304 C93.16,322.304 92.44,323.384 92.44,324.464 C92.44,325.4 93.088,326.408 94.384,326.408 L94.528,326.408 C95.104,326.408 95.464,326.336 96.04,326.336 C97.768,326.408 98.488,327.56 98.488,329.648 C98.488,335.912 98.416,342.968 98.344,349.808 C98.344,350.744 97.912,351.248 97.048,351.248 C95.824,351.248 95.392,351.176 94.456,351.176 L94.384,351.176 C92.944,351.176 92.224,352.184 92.224,353.192 C92.224,355.28 94.168,355.208 94.456,355.208 C96.184,355.136 98.2,355.064 100.216,355.064 C102.232,355.064 104.392,355.136 106.336,355.208 L106.408,355.208 Z M144.28,349.088 C144.28,347.864 143.2,346.856 141.976,346.856 C141.328,346.856 140.68,347.144 140.104,347.936 C138.088,350.672 134.56,352.112 130.888,352.112 C122.608,352.112 118.36,345.272 118.36,338.72 C118.36,330.728 123.832,325.112 130.888,325.112 C133.696,325.112 136.432,325.976 138.232,328.064 C139.096,329.072 138.88,329.936 138.952,331.448 C139.024,332.6 140.032,333.176 140.968,333.176 C142.048,333.176 143.056,332.6 143.056,331.376 L143.056,331.232 C142.984,329.576 142.984,328.424 142.984,327.344 C142.984,326.192 142.984,325.112 143.056,323.6 L143.056,323.456 C143.056,322.232 142.048,321.656 140.968,321.656 C140.176,321.656 139.312,322.016 139.24,322.88 C139.168,323.24 139.096,323.672 138.88,323.672 C138.736,323.672 138.664,323.6 138.52,323.528 C136.432,322.304 133.48,321.368 130.384,321.368 C121.312,321.368 114.184,328.928 114.184,339.008 C114.184,347.576 120.016,356 131.104,356 C138.88,356 144.28,351.176 144.28,349.088 Z M179.56,355.28 C180.784,355.28 181.504,354.272 181.504,353.264 C181.504,352.544 181.144,351.752 180.28,351.464 C177.4,350.456 176.896,348.728 176.896,343.472 C176.896,340.736 177.04,336.992 177.256,334.616 C177.328,333.896 177.328,333.248 177.328,332.6 C177.328,324.536 172.792,321.584 166.096,321.584 C159.904,321.584 153.856,324.68 153.856,327.416 C153.856,328.568 154.792,329.36 155.872,329.36 C156.376,329.36 156.952,329.144 157.384,328.64 C159.04,326.84 161.92,325.184 165.808,325.184 C171.64,325.184 173.296,328.28 173.296,332.24 C173.296,332.6 173.224,333.032 173.224,333.392 C173.224,333.896 172.936,334.112 172.072,334.256 C169.048,334.76 163.216,335.84 158.752,337.208 C153.424,338.864 151.048,342.536 151.048,346.136 C151.048,351.104 155.44,356.072 162.712,356.072 C166.888,356.072 171.496,353.984 173.656,350.528 C173.728,350.384 173.872,350.312 173.944,350.312 C174.088,350.312 174.16,350.456 174.232,350.672 C174.88,353.336 177.472,355.28 179.56,355.28 Z M162.64,352.256 C157.816,352.256 154.936,349.232 154.936,346.208 C154.936,341.168 160.912,339.728 172.216,337.928 L172.432,337.928 C172.936,337.928 173.152,338.144 173.152,338.72 L173.152,339.656 C173.152,350.744 166.312,352.256 162.64,352.256 Z M196.84,305.744 C196.84,304.016 195.544,302.36 193.312,302.36 C191.872,302.36 189.856,303.44 189.856,305.744 C189.856,309.2 192.88,309.2 193.24,309.2 C196.48,309.2 196.84,306.32 196.84,305.744 Z M200.584,355.208 C202.024,355.208 202.744,354.2 202.744,353.192 C202.744,351.104 200.8,351.176 200.512,351.176 C199.432,351.248 199.144,351.248 197.992,351.248 C197.128,351.248 196.696,350.6 196.696,349.88 L196.696,344.264 C196.696,339.008 196.768,333.536 196.84,328.496 L196.84,328.28 C196.84,325.256 195.472,322.376 191.512,322.376 C189.856,322.376 190.072,322.304 188.704,322.304 C187.336,322.304 186.616,323.384 186.616,324.464 C186.616,325.4 187.264,326.408 188.56,326.408 L188.704,326.408 C189.28,326.408 189.64,326.336 190.216,326.336 C191.944,326.408 192.664,327.56 192.664,329.648 C192.664,335.912 192.592,342.968 192.52,349.808 C192.52,350.744 192.088,351.248 191.224,351.248 C190,351.248 189.568,351.176 188.632,351.176 L188.56,351.176 C187.12,351.176 186.4,352.184 186.4,353.192 C186.4,355.28 188.344,355.208 188.632,355.208 C190.36,355.136 192.376,355.064 194.392,355.064 C196.408,355.064 198.568,355.136 200.512,355.208 L200.584,355.208 Z M279.28,326.264 C280.72,326.264 281.512,325.256 281.512,324.248 C281.512,323.816 281.08,322.232 279.208,322.304 C277.408,322.376 275.392,322.376 273.304,322.376 C271.288,322.376 269.128,322.376 267.112,322.304 L266.968,322.304 C265.6,322.304 264.952,323.312 264.952,324.248 C264.952,325.976 266.248,326.336 267.112,326.264 C268.192,326.192 268.48,326.192 269.632,326.192 C270.424,326.192 270.856,326.408 270.856,326.984 C270.856,329.216 264.232,341.528 262.936,341.528 C262.792,341.528 262.648,341.456 262.432,341.24 C258.76,337.064 252.64,330.152 249.184,326.48 C248.896,326.192 248.752,325.976 248.752,325.832 C248.752,325.616 248.896,325.472 249.184,325.328 C257.392,319.64 258.112,314.816 258.112,312.584 C258.112,307.4 253.936,302.504 247.672,302.504 C241.48,302.504 236.44,307.256 236.44,313.16 C236.44,316.688 238.312,320.648 242.56,324.752 C242.704,324.896 242.776,325.04 242.776,325.184 C242.776,325.4 242.632,325.544 242.344,325.76 C237.448,328.928 230.464,334.112 230.464,342.176 C230.464,349.52 236.44,356.144 245.152,356.144 C252.928,356.144 259.768,350.96 262.216,348.512 C262.432,348.296 262.648,348.152 262.864,348.152 C263.152,348.152 263.44,348.368 263.728,348.656 C267.688,352.76 271.288,355.568 275.968,355.568 C278.92,355.568 282.016,354.704 282.016,352.544 C282.016,351.392 281.152,350.312 279.928,350.312 C279.712,350.312 279.352,350.384 279.064,350.528 C277.984,350.96 276.976,351.248 275.896,351.248 C271,351.248 265.816,345.056 265.816,344.768 C265.816,344.552 265.96,344.336 266.176,344.12 C270.28,339.08 273.232,333.104 275.176,327.488 C275.464,326.696 275.896,326.192 276.76,326.192 C277.912,326.192 278.272,326.264 279.208,326.264 L279.28,326.264 Z M252.784,316.76 C251.992,318.2 246.88,322.952 246.088,322.952 C245.728,322.952 240.472,318.488 240.472,313.376 C240.472,309.776 242.992,306.248 247.384,306.248 C250.696,306.248 254.008,308.336 254.008,312.512 C254.008,313.952 253.576,315.392 252.784,316.76 Z M260.056,344.696 C260.056,345.704 252.784,352.112 245.656,352.112 C239.392,352.112 234.712,347.648 234.712,342.104 C234.712,335.696 239.68,332.024 244.864,328.496 C245.152,328.28 245.368,328.208 245.512,328.208 C246.16,328.208 260.056,344.12 260.056,344.696 Z M362.512,355.136 C363.808,355.136 364.456,354.2 364.456,353.192 C364.456,352.256 363.808,351.32 362.512,351.32 L362.44,351.32 C361.432,351.32 361.648,351.392 360.568,351.392 C359.776,351.392 359.416,350.888 359.416,350.168 C359.416,344.552 359.344,335.408 359.272,332.384 C359.056,325.328 353.944,321.584 348.472,321.584 C344.368,321.584 340.048,323.672 337.312,327.92 C335.8,323.672 331.84,321.656 327.808,321.656 C324.208,321.656 320.536,323.168 318.16,326.12 L318.016,326.264 C317.944,326.264 317.944,326.192 317.872,325.976 C317.8,325.76 317.296,322.232 312.184,322.232 C311.464,322.232 310.744,322.304 310.096,322.304 C308.8,322.304 308.152,323.312 308.152,324.32 C308.152,325.328 308.8,326.336 310.024,326.336 C310.96,326.336 310.96,326.264 311.608,326.264 C313.264,326.264 313.84,327.704 313.84,329.504 L313.84,334.904 C313.84,339.944 313.768,345.344 313.696,350.168 C313.696,350.96 313.192,351.392 312.472,351.392 C311.392,351.392 311.176,351.32 310.312,351.32 L310.24,351.32 C308.944,351.32 308.296,352.256 308.224,353.264 C308.296,353.768 308.512,355.208 310.312,355.136 C311.968,355.064 313.696,354.992 315.424,354.992 C317.224,354.992 319.096,355.064 320.896,355.136 L320.968,355.136 C322.264,355.136 322.912,354.2 322.912,353.192 C322.912,352.256 322.264,351.32 320.968,351.32 L320.896,351.32 C319.888,351.392 320.104,351.392 319.024,351.392 C318.16,351.392 317.728,350.888 317.728,350.096 C317.728,347.288 317.656,343.976 317.656,340.952 C317.656,338 317.728,335.408 317.728,334.256 C317.944,328.928 322.84,325.328 327.304,325.328 C330.832,325.328 334.072,327.56 334.36,333.104 C334.432,334.472 334.504,338.072 334.504,341.96 C334.504,344.768 334.432,347.648 334.432,350.096 C334.432,350.888 333.928,351.392 333.208,351.392 C332.128,351.392 331.912,351.32 331.048,351.32 L330.976,351.32 C329.68,351.32 329.032,352.328 329.032,353.264 C329.032,354.272 329.752,355.208 331.048,355.136 C332.704,355.064 334.36,354.992 336.16,354.992 C337.888,354.992 339.76,355.064 341.56,355.136 L341.632,355.136 C342.928,355.136 343.576,354.128 343.576,353.192 C343.576,352.184 342.856,351.248 341.56,351.32 C340.552,351.392 340.696,351.392 339.616,351.392 C338.752,351.392 338.32,350.96 338.32,350.168 C338.32,347.864 338.248,345.128 338.248,342.464 C338.248,338.792 338.32,335.336 338.392,333.752 C338.608,328.856 343.576,325.328 348.04,325.328 C351.64,325.328 354.88,327.56 355.168,333.104 C355.24,334.472 355.312,338.36 355.312,342.32 C355.312,345.2 355.24,348.08 355.24,350.168 C355.24,350.96 354.736,351.392 354.016,351.392 C352.936,351.392 352.792,351.32 351.928,351.32 L351.856,351.32 C350.56,351.32 349.912,352.256 349.912,353.264 C349.912,354.416 350.848,355.208 351.928,355.136 C353.584,355.064 355.24,354.992 357.04,354.992 C358.768,354.992 360.64,355.064 362.44,355.136 L362.512,355.136 Z M378.712,305.744 C378.712,304.016 377.416,302.36 375.184,302.36 C373.744,302.36 371.728,303.44 371.728,305.744 C371.728,309.2 374.752,309.2 375.112,309.2 C378.352,309.2 378.712,306.32 378.712,305.744 Z M382.456,355.208 C383.896,355.208 384.616,354.2 384.616,353.192 C384.616,351.104 382.672,351.176 382.384,351.176 C381.304,351.248 381.016,351.248 379.864,351.248 C379,351.248 378.568,350.6 378.568,349.88 L378.568,344.264 C378.568,339.008 378.64,333.536 378.712,328.496 L378.712,328.28 C378.712,325.256 377.344,322.376 373.384,322.376 C371.728,322.376 371.944,322.304 370.576,322.304 C369.208,322.304 368.488,323.384 368.488,324.464 C368.488,325.4 369.136,326.408 370.432,326.408 L370.576,326.408 C371.152,326.408 371.512,326.336 372.088,326.336 C373.816,326.408 374.536,327.56 374.536,329.648 C374.536,335.912 374.464,342.968 374.392,349.808 C374.392,350.744 373.96,351.248 373.096,351.248 C371.872,351.248 371.44,351.176 370.504,351.176 L370.432,351.176 C368.992,351.176 368.272,352.184 368.272,353.192 C368.272,355.28 370.216,355.208 370.504,355.208 C372.232,355.136 374.248,355.064 376.264,355.064 C378.28,355.064 380.44,355.136 382.384,355.208 L382.456,355.208 Z M421.48,355.136 C422.848,355.136 423.496,354.128 423.496,353.12 C423.496,351.896 422.632,351.176 421.48,351.248 C421.048,351.248 420.688,351.32 420.4,351.32 C419.68,351.32 419.032,351.176 418.312,350.456 C405.28,338.504 403.408,336.776 403.408,336.272 C403.408,336.056 403.552,335.84 403.984,335.552 C407.512,333.248 413.056,329.504 417.304,326.624 C417.808,326.264 418.528,325.976 419.104,325.976 C420.112,325.976 419.536,326.048 420.544,326.048 L420.616,326.048 C421.912,326.048 422.632,325.112 422.632,324.176 C422.632,322.448 421.264,322.232 420.544,322.304 C418.672,322.376 416.944,322.376 415.36,322.376 C413.704,322.376 412.12,322.376 410.32,322.304 L410.176,322.304 C408.88,322.304 408.232,323.24 408.232,324.176 C408.232,325.904 409.96,325.904 411.256,325.904 C411.616,325.904 411.76,325.976 411.76,326.12 C411.76,326.192 411.688,326.336 411.472,326.48 C400.096,334.328 399.808,334.4 399.016,334.4 C398.296,334.4 397.792,334.04 397.792,333.248 C397.792,333.248 397.936,317.984 397.936,308.696 C397.936,307.112 397.432,303.296 391.528,303.296 C389.008,303.296 387.712,303.512 387.712,305.384 C387.712,306.392 388.432,307.4 389.728,307.4 L391.384,307.4 C393.184,307.472 393.76,308.264 393.76,310.28 C393.76,314.168 393.832,318.992 393.832,324.032 C393.832,332.816 393.76,342.536 393.616,350.096 C393.616,350.888 393.112,351.32 392.392,351.32 C391.24,351.32 391.096,351.248 390.232,351.248 L390.16,351.248 C388.792,351.248 388.072,352.256 388.072,353.264 C388.072,354.056 388.576,355.208 390.232,355.136 C391.888,355.064 393.616,354.992 395.416,354.992 C397.288,354.992 399.16,355.064 401.032,355.136 L401.104,355.136 C402.472,355.136 403.192,354.2 403.192,353.192 C403.192,352.184 402.472,351.248 401.104,351.248 L401.032,351.248 C400.024,351.32 400.096,351.32 399.016,351.32 C398.152,351.32 397.792,350.816 397.792,350.096 C397.72,346.64 397.72,344.336 397.72,342.608 C397.72,338.864 397.792,338.216 398.872,338.216 C399.592,338.216 400.312,338.288 401.032,339.08 C403.264,341.384 409.168,346.856 412.984,350.6 C413.056,350.672 413.128,350.816 413.128,350.888 C413.128,350.96 413.128,351.392 411.256,351.392 C410.752,351.392 409.312,351.392 409.312,353.264 C409.312,354.2 409.96,355.136 411.256,355.136 L411.4,355.136 C413.056,355.064 414.64,354.992 416.224,354.992 C417.808,354.992 419.536,355.064 421.408,355.136 L421.48,355.136 Z M437.536,305.744 C437.536,304.016 436.24,302.36 434.008,302.36 C432.568,302.36 430.552,303.44 430.552,305.744 C430.552,309.2 433.576,309.2 433.936,309.2 C437.176,309.2 437.536,306.32 437.536,305.744 Z M441.28,355.208 C442.72,355.208 443.44,354.2 443.44,353.192 C443.44,351.104 441.496,351.176 441.208,351.176 C440.128,351.248 439.84,351.248 438.688,351.248 C437.824,351.248 437.392,350.6 437.392,349.88 L437.392,344.264 C437.392,339.008 437.464,333.536 437.536,328.496 L437.536,328.28 C437.536,325.256 436.168,322.376 432.208,322.376 C430.552,322.376 430.768,322.304 429.4,322.304 C428.032,322.304 427.312,323.384 427.312,324.464 C427.312,325.4 427.96,326.408 429.256,326.408 L429.4,326.408 C429.976,326.408 430.336,326.336 430.912,326.336 C432.64,326.408 433.36,327.56 433.36,329.648 C433.36,335.912 433.288,342.968 433.216,349.808 C433.216,350.744 432.784,351.248 431.92,351.248 C430.696,351.248 430.264,351.176 429.328,351.176 L429.256,351.176 C427.816,351.176 427.096,352.184 427.096,353.192 C427.096,355.28 429.04,355.208 429.328,355.208 C431.056,355.136 433.072,355.064 435.088,355.064 C437.104,355.064 439.264,355.136 441.208,355.208 L441.28,355.208 Z M2.224,423.176 C0.928,423.176 0.28,424.184 0.28,425.192 C0.28,425.912 0.64,427.496 3.232,427.496 C6.184,427.496 9.136,425.84 9.64,422.312 C9.712,421.88 9.784,421.664 9.928,421.664 C10.072,421.664 10.288,421.952 10.648,422.384 C13.528,426.056 18.28,427.856 22.528,427.856 C31.888,427.856 38.872,421.16 38.872,410.72 C38.872,400.64 31.888,393.584 22.528,393.584 C17.632,393.584 13.384,395.744 10.864,399.128 C10.576,399.56 10.36,399.704 10.216,399.704 C10.072,399.704 10.072,399.416 10.072,398.912 C10.072,392.432 10.144,386.456 10.216,381.488 L10.216,381.272 C10.216,378.104 8.776,375.296 4.384,375.296 L2.08,375.296 C0.784,375.296 0.064,376.376 0.064,377.384 C0.064,379.472 2.008,379.4 2.152,379.4 C2.656,379.328 2.872,379.328 3.088,379.328 C5.248,379.328 6.112,379.976 6.112,382.712 L6.112,392.288 C6.112,401 6.112,411.368 6.04,418.928 C6.04,422.672 4.672,423.176 2.296,423.176 L2.224,423.176 Z M22.384,423.968 C15.544,423.968 10.144,418.784 10.144,410.72 C10.144,402.656 15.544,397.256 22.384,397.256 C29.224,397.256 34.552,402.656 34.552,410.72 C34.552,418.784 29.224,423.968 22.384,423.968 Z M77.176,420.944 C77.176,419.792 76.096,418.856 75.016,418.856 C74.512,418.856 74.008,419.072 73.576,419.504 C71.344,422.024 68.392,424.256 63.136,424.256 C56.224,424.256 51.04,419.432 51.04,411.584 C51.04,410.576 51.184,410.288 51.904,410.288 C53.488,410.288 59.608,410.36 65.008,410.36 C67.672,410.36 70.12,410.36 71.776,410.288 C75.448,410.144 77.032,408.128 77.032,405.464 C77.032,401.36 72.712,393.656 62.848,393.656 C54.352,393.656 46.792,400.568 46.792,411.08 C46.792,421.232 53.92,428.072 63.064,428.072 C72.136,428.072 77.176,422.6 77.176,420.944 Z M72.784,404.744 C72.784,405.896 72.136,406.688 70.408,406.76 C68.392,406.832 64.36,406.832 60.616,406.832 C52.264,406.832 51.616,406.832 51.616,406.112 C51.616,403.448 56.008,397.256 62.92,397.256 C70.264,397.256 72.784,402.656 72.784,404.744 Z M115.264,420.944 C115.264,419.792 114.184,418.856 113.104,418.856 C112.6,418.856 112.096,419.072 111.664,419.504 C109.432,422.024 106.48,424.256 101.224,424.256 C94.312,424.256 89.128,419.432 89.128,411.584 C89.128,410.576 89.272,410.288 89.992,410.288 C91.576,410.288 97.696,410.36 103.096,410.36 C105.76,410.36 108.208,410.36 109.864,410.288 C113.536,410.144 115.12,408.128 115.12,405.464 C115.12,401.36 110.8,393.656 100.936,393.656 C92.44,393.656 84.88,400.568 84.88,411.08 C84.88,421.232 92.008,428.072 101.152,428.072 C110.224,428.072 115.264,422.6 115.264,420.944 Z M110.872,404.744 C110.872,405.896 110.224,406.688 108.496,406.76 C106.48,406.832 102.448,406.832 98.704,406.832 C90.352,406.832 89.704,406.832 89.704,406.112 C89.704,403.448 94.096,397.256 101.008,397.256 C108.352,397.256 110.872,402.656 110.872,404.744 Z M157.24,427.136 C158.608,427.136 159.328,426.2 159.328,425.192 C159.328,424.184 158.608,423.248 157.24,423.248 L157.168,423.248 C156.16,423.248 156.16,423.32 155.08,423.32 C154.288,423.32 153.928,422.816 153.928,422.024 L153.928,418.568 C153.928,413.384 153.856,407.48 153.784,405.104 C153.496,397.256 147.736,393.584 141.76,393.584 C137.728,393.584 133.624,395.24 131.104,398.48 C130.96,398.624 130.816,398.696 130.744,398.696 C130.528,398.696 130.456,398.552 130.384,398.336 C130.024,395.672 127.576,394.304 124.696,394.304 L122.608,394.304 C121.24,394.304 120.52,395.384 120.52,396.392 C120.52,397.4 121.168,398.408 122.464,398.408 L122.608,398.408 C123.544,398.336 123.472,398.336 124.12,398.336 C125.848,398.408 126.496,399.704 126.496,401.576 C126.496,404.672 126.568,407.408 126.568,410.072 C126.568,413.816 126.496,417.56 126.424,422.096 C126.424,422.888 125.92,423.32 125.2,423.32 C124.048,423.32 123.832,423.248 122.968,423.248 L122.896,423.248 C121.528,423.248 120.808,424.256 120.808,425.264 C120.808,426.056 121.312,427.208 122.968,427.136 C124.624,427.064 126.424,426.992 128.224,426.992 C130.024,426.992 131.968,427.064 133.84,427.136 L133.912,427.136 C135.28,427.136 136,426.128 136,425.192 C136,424.04 135.136,423.176 133.84,423.248 C132.832,423.32 132.976,423.32 131.896,423.32 C131.032,423.32 130.6,422.888 130.6,422.096 C130.6,418.712 130.528,415.616 130.528,412.952 C130.528,410.36 130.6,408.2 130.6,406.832 C130.816,401.144 136.36,397.328 141.4,397.328 C145.432,397.328 149.248,399.776 149.608,405.752 C149.68,406.76 149.68,408.776 149.68,411.224 C149.68,414.608 149.68,418.712 149.608,422.024 C149.608,422.816 149.248,423.32 148.528,423.32 C147.376,423.32 147.232,423.248 146.368,423.248 L146.296,423.248 C144.928,423.248 144.208,424.256 144.208,425.264 C144.208,426.056 144.712,427.208 146.368,427.136 C148.024,427.064 149.752,426.992 151.552,426.992 C153.424,426.992 155.296,427.064 157.168,427.136 L157.24,427.136 Z M202.744,398.192 C204.112,398.192 204.76,397.256 204.76,396.248 C204.76,395.312 204.112,394.376 202.744,394.376 L196.336,394.376 C195.4,394.376 195.256,394.376 195.256,393.584 C195.256,393.584 195.4,387.824 195.4,385.736 C195.4,384.224 194.392,383.504 193.312,383.504 C192.304,383.504 191.224,384.224 191.224,385.592 L191.224,387.392 C191.224,389.912 191.152,393.368 191.152,393.656 C191.152,394.304 191.008,394.376 190.36,394.376 L186.184,394.376 C184.816,394.376 184.168,395.312 184.168,396.248 C184.168,397.256 184.816,398.192 186.184,398.192 L190.432,398.192 C190.936,398.192 191.152,398.264 191.152,398.984 L191.152,400.136 C191.152,403.664 191.008,412.448 191.008,417.056 C191.008,420.224 191.008,428.072 200.224,428.072 C203.104,428.072 204.832,427.712 204.832,425.84 C204.832,424.904 204.184,423.968 203.104,423.968 L202.816,423.968 C202.096,424.04 201.448,424.112 200.8,424.112 C195.184,424.112 195.04,420.296 195.04,414.68 C195.04,409.352 195.256,401.936 195.256,399.2 C195.256,398.336 195.256,398.192 196.408,398.192 L202.744,398.192 Z M228.16,428.072 C237.736,428.072 244.936,421.16 244.936,410.792 C244.936,400.784 237.736,393.584 228.16,393.584 C218.584,393.584 211.528,400.784 211.528,410.792 C211.528,421.16 218.584,428.072 228.16,428.072 Z M228.16,424.256 C221.248,424.256 215.704,418.856 215.704,410.792 C215.704,402.656 221.248,397.328 228.16,397.328 C235.072,397.328 240.688,402.656 240.688,410.792 C240.688,418.856 235.072,424.256 228.16,424.256 Z M281.296,429.08 C281.224,438.728 274.888,442.4 268.624,442.4 C264.592,442.4 260.632,440.888 258.4,438.512 C257.968,438.08 257.464,437.864 256.96,437.864 C255.736,437.864 254.584,438.944 254.584,440.24 C254.584,443.192 262.792,446.432 268.336,446.432 C277.048,446.432 285.256,440.96 285.328,429.008 C285.328,425.192 285.256,416.768 285.256,410.144 C285.256,406.904 285.256,404.024 285.328,402.512 C285.4,399.632 286.48,398.552 287.92,398.48 L289.216,398.48 C290.368,398.48 290.944,397.472 290.944,396.464 C290.944,394.808 289.936,394.304 287.92,394.304 C284.248,394.304 282.016,396.68 281.8,399.416 C281.728,399.992 281.656,400.208 281.584,400.208 C281.512,400.208 281.296,399.776 280.864,399.2 C278.416,395.816 273.52,393.656 268.984,393.656 C259.624,393.656 252.568,400.64 252.568,410.792 C252.568,421.088 259.552,427.928 268.912,427.928 C273.232,427.928 277.768,425.912 280.648,422.24 C280.936,421.808 281.152,421.592 281.224,421.592 C281.296,421.592 281.296,421.808 281.296,422.456 L281.296,429.08 Z M269.056,424.04 C261.856,424.04 256.816,419 256.816,410.792 C256.816,402.584 261.856,397.472 269.128,397.472 C276.184,397.472 281.296,402.584 281.296,410.792 C281.296,418.856 275.824,424.04 269.056,424.04 Z M326.8,420.944 C326.8,419.792 325.72,418.856 324.64,418.856 C324.136,418.856 323.632,419.072 323.2,419.504 C320.968,422.024 318.016,424.256 312.76,424.256 C305.848,424.256 300.664,419.432 300.664,411.584 C300.664,410.576 300.808,410.288 301.528,410.288 C303.112,410.288 309.232,410.36 314.632,410.36 C317.296,410.36 319.744,410.36 321.4,410.288 C325.072,410.144 326.656,408.128 326.656,405.464 C326.656,401.36 322.336,393.656 312.472,393.656 C303.976,393.656 296.416,400.568 296.416,411.08 C296.416,421.232 303.544,428.072 312.688,428.072 C321.76,428.072 326.8,422.6 326.8,420.944 Z M322.408,404.744 C322.408,405.896 321.76,406.688 320.032,406.76 C318.016,406.832 313.984,406.832 310.24,406.832 C301.888,406.832 301.24,406.832 301.24,406.112 C301.24,403.448 305.632,397.256 312.544,397.256 C319.888,397.256 322.408,402.656 322.408,404.744 Z M350.776,398.192 C352.144,398.192 352.792,397.256 352.792,396.248 C352.792,395.312 352.144,394.376 350.776,394.376 L344.368,394.376 C343.432,394.376 343.288,394.376 343.288,393.584 C343.288,393.584 343.432,387.824 343.432,385.736 C343.432,384.224 342.424,383.504 341.344,383.504 C340.336,383.504 339.256,384.224 339.256,385.592 L339.256,387.392 C339.256,389.912 339.184,393.368 339.184,393.656 C339.184,394.304 339.04,394.376 338.392,394.376 L334.216,394.376 C332.848,394.376 332.2,395.312 332.2,396.248 C332.2,397.256 332.848,398.192 334.216,398.192 L338.464,398.192 C338.968,398.192 339.184,398.264 339.184,398.984 L339.184,400.136 C339.184,403.664 339.04,412.448 339.04,417.056 C339.04,420.224 339.04,428.072 348.256,428.072 C351.136,428.072 352.864,427.712 352.864,425.84 C352.864,424.904 352.216,423.968 351.136,423.968 L350.848,423.968 C350.128,424.04 349.48,424.112 348.832,424.112 C343.216,424.112 343.072,420.296 343.072,414.68 C343.072,409.352 343.288,401.936 343.288,399.2 C343.288,398.336 343.288,398.192 344.44,398.192 L350.776,398.192 Z M394.264,427.136 C395.632,427.136 396.352,426.2 396.352,425.192 C396.352,424.184 395.632,423.248 394.264,423.248 L394.192,423.248 C393.184,423.248 393.256,423.32 392.176,423.32 C391.312,423.32 390.952,422.816 390.952,422.024 C390.952,416.336 390.88,408.056 390.808,405.032 C390.52,397.184 384.76,393.512 378.784,393.512 C374.752,393.512 370.648,395.168 368.128,398.408 C367.984,398.552 367.912,398.624 367.84,398.624 C367.768,398.624 367.696,398.48 367.696,398.264 C367.696,397.256 367.768,390.776 367.768,384.944 L367.768,380.84 C367.768,377.888 366.256,375.728 362.872,375.368 C362.296,375.296 361.648,375.224 361.072,375.224 C357.976,375.224 357.4,376.16 357.4,377.384 C357.4,378.392 358.12,379.4 359.416,379.4 L359.488,379.4 C360.424,379.328 360.424,379.328 361.072,379.328 C362.944,379.4 363.52,380.408 363.52,382.28 C363.52,386.6 363.592,392.432 363.592,398.552 C363.592,407.192 363.52,416.264 363.448,422.096 C363.448,422.888 363.016,423.32 362.296,423.32 C361.144,423.32 360.928,423.248 359.992,423.248 L359.92,423.248 C358.552,423.248 357.832,424.256 357.832,425.264 C357.832,426.056 358.336,427.208 359.992,427.136 C361.648,427.064 363.448,426.992 365.248,426.992 C367.048,426.992 368.992,427.064 370.864,427.136 L370.936,427.136 C372.304,427.136 373.024,426.128 373.024,425.192 C373.024,424.04 372.088,423.176 370.864,423.248 C369.856,423.32 369.928,423.32 368.848,423.32 C367.984,423.32 367.624,422.816 367.624,422.096 C367.624,418.712 367.552,415.544 367.552,412.88 C367.552,410.288 367.624,408.128 367.624,406.76 C367.84,401.072 373.312,397.328 378.352,397.328 C382.456,397.328 386.272,399.848 386.632,405.824 C386.704,407.192 386.776,410.576 386.776,414.32 C386.776,416.984 386.704,419.72 386.704,422.096 C386.704,422.816 386.272,423.32 385.552,423.32 C384.4,423.32 384.328,423.248 383.392,423.248 L383.32,423.248 C381.952,423.248 381.232,424.256 381.232,425.264 C381.232,426.056 381.736,427.208 383.392,427.136 C385.048,427.064 386.776,426.992 388.576,426.992 C390.448,426.992 392.32,427.064 394.192,427.136 L394.264,427.136 Z M432.28,420.944 C432.28,419.792 431.2,418.856 430.12,418.856 C429.616,418.856 429.112,419.072 428.68,419.504 C426.448,422.024 423.496,424.256 418.24,424.256 C411.328,424.256 406.144,419.432 406.144,411.584 C406.144,410.576 406.288,410.288 407.008,410.288 C408.592,410.288 414.712,410.36 420.112,410.36 C422.776,410.36 425.224,410.36 426.88,410.288 C430.552,410.144 432.136,408.128 432.136,405.464 C432.136,401.36 427.816,393.656 417.952,393.656 C409.456,393.656 401.896,400.568 401.896,411.08 C401.896,421.232 409.024,428.072 418.168,428.072 C427.24,428.072 432.28,422.6 432.28,420.944 Z M427.888,404.744 C427.888,405.896 427.24,406.688 425.512,406.76 C423.496,406.832 419.464,406.832 415.72,406.832 C407.368,406.832 406.72,406.832 406.72,406.112 C406.72,403.448 411.112,397.256 418.024,397.256 C425.368,397.256 427.888,402.656 427.888,404.744 Z M451.936,427.136 C453.304,427.136 454.024,426.128 454.024,425.192 C454.024,424.04 453.088,423.176 451.864,423.248 C450.856,423.32 450.568,423.32 449.488,423.32 C448.696,423.32 448.264,422.744 448.264,422.024 C448.264,418.568 448.192,415.328 448.192,412.592 C448.192,409.856 448.264,407.624 448.264,406.256 C448.408,400.928 453.808,397.688 458.776,397.688 L459.208,397.688 C460.504,397.688 461.224,396.68 461.224,395.672 C461.224,394.304 460.216,393.584 458.848,393.656 C454.744,393.8 450.568,395.456 448.624,398.12 C448.48,398.264 448.336,398.336 448.192,398.336 C448.12,398.336 447.976,398.336 447.976,398.12 C447.544,395.528 445.168,394.304 442.288,394.304 L440.272,394.304 C438.904,394.304 438.256,395.312 438.256,396.392 C438.256,397.4 438.904,398.408 440.2,398.408 L440.272,398.408 C441.208,398.336 441.136,398.336 441.784,398.336 C443.584,398.408 444.16,399.704 444.16,401.648 L444.16,407.264 C444.16,412.088 444.088,416.48 444.016,422.024 C444.016,422.816 443.584,423.32 442.864,423.32 C441.712,423.32 441.352,423.248 440.416,423.248 L440.344,423.248 C438.976,423.248 438.256,424.256 438.256,425.264 C438.256,426.056 438.76,427.208 440.416,427.136 C442.072,427.064 444.016,426.992 445.96,426.992 C447.904,426.992 449.992,427.064 451.864,427.136 L451.936,427.136 Z" id="caicai-&amp;-miki-been-t" fill="#F55151"></path>
            </g>
        </g>
    </g>
</svg>