<?xml version="1.0" encoding="UTF-8" standalone="no"?>
<svg width="266px" height="32px" viewBox="0 0 266 32" version="1.1" xmlns="http://www.w3.org/2000/svg" xmlns:xlink="http://www.w3.org/1999/xlink">
    <!-- Generator: Sketch 41.1 (35376) - http://www.bohemiancoding.com/sketch -->
    <title>格藝尋道 術設溯淵 copy</title>
    <desc>Created with Sketch.</desc>
    <defs></defs>
    <g id="Symbols" stroke="none" stroke-width="1" fill="none" fill-rule="evenodd">
        <path d="M18.496,5.536 C18.912,4.8 19.104,4.416 19.648,3.328 C20.704,3.136 21.088,2.944 21.088,2.656 C21.088,2.272 20.704,2.144 16.16,1.088 C15.904,2.912 15.584,4.192 14.784,6.4 C13.856,8.928 13.184,10.368 11.872,12.48 L12.128,12.704 C14.4,10.944 15.456,9.888 16.832,8.064 C17.632,9.984 18.208,11.008 19.296,12.512 C16.416,15.52 13.792,17.6 10.048,19.776 L10.208,20.128 C11.744,19.616 12.32,19.392 13.28,19.008 C13.312,20.96 13.312,20.992 13.312,22.24 C13.312,23.648 13.312,24.736 13.248,29.856 C13.248,30.464 13.408,30.528 14.624,30.528 C15.68,30.528 16.32,30.432 16.576,30.24 C16.704,30.144 16.736,30.08 16.768,29.664 L16.768,28.416 L24.128,28.416 L24.128,29.952 C24.16,30.432 24.288,30.496 25.408,30.496 C27.36,30.496 27.68,30.368 27.68,29.664 C27.584,26.944 27.552,24.992 27.552,23.424 C27.552,22.816 27.552,22.176 27.584,21.184 C28.224,20.832 28.48,20.576 28.48,20.352 C28.48,20.192 28.32,20 27.936,19.712 C26.816,19.008 26.464,18.784 25.312,18.08 C24.768,18.72 24.576,18.912 23.968,19.616 L16.832,19.616 C15.584,19.04 15.136,18.816 14.432,18.528 C16.992,17.376 18.848,16.224 21.024,14.496 C23.008,16.512 25.12,17.824 28.032,18.848 C28.704,19.072 29.024,19.168 29.184,19.168 C29.376,19.168 29.472,19.04 29.568,18.624 C29.824,17.312 30.496,16.384 31.648,15.68 L31.648,15.392 C27.936,15.168 25.408,14.528 22.72,13.024 C24.544,11.328 25.76,9.824 27.488,7.136 C28.576,6.976 29.024,6.784 29.024,6.496 C29.024,6.336 28.896,6.144 28.576,5.856 C27.392,4.864 27.008,4.544 25.664,3.52 C24.8,4.352 24.512,4.64 23.648,5.536 L18.496,5.536 Z M23.712,6.208 C22.496,8.512 21.76,9.664 20.32,11.36 C19.136,10.368 18.464,9.568 17.152,7.584 C17.6,6.976 17.632,6.912 18.08,6.208 L23.712,6.208 Z M16.768,20.288 L24.128,20.288 L24.128,27.744 L16.768,27.744 L16.768,20.288 Z M8.544,8.352 L8.544,2.912 C9.664,2.528 9.952,2.368 9.952,2.08 C9.952,1.696 9.44,1.568 7.232,1.344 C6.752,1.312 6.048,1.248 5.056,1.152 C5.216,2.592 5.248,3.296 5.248,5.312 L5.248,8.352 L2.816,8.352 C2.176,8.352 1.664,8.288 0.992,8.096 L1.152,9.184 C1.856,9.056 2.112,9.024 2.816,9.024 L4.96,9.024 C4.192,14.112 2.624,19.168 0.544,23.36 L0.832,23.552 C2.848,21.568 3.904,19.968 5.408,16.736 L5.312,20.096 L5.184,24.992 C5.12,27.552 5.12,27.552 5.056,29.952 C5.088,30.528 5.216,30.592 6.272,30.592 C8.224,30.592 8.576,30.464 8.576,29.76 C8.544,25.632 8.544,25.632 8.544,22.464 L8.544,11.776 C9.408,12.832 9.952,14.016 10.304,15.84 C10.528,16.928 10.72,17.216 11.136,17.216 C11.968,17.216 12.96,15.872 12.96,14.752 C12.96,13.536 11.52,12.352 8.544,11.168 L8.544,9.024 L13.44,9.024 C13.6,9.024 13.696,8.96 13.696,8.864 C13.696,8.8 13.664,8.736 13.536,8.608 C12.448,7.52 12.128,7.2 10.944,6.144 C10.432,6.848 9.856,7.584 9.28,8.352 L8.544,8.352 Z M47.392,11.296 L48.16,11.296 C48.288,11.296 48.416,11.232 48.416,11.168 C48.416,11.104 48.384,11.008 48.32,10.912 C47.424,10.08 47.136,9.824 46.208,9.088 C45.536,9.728 45.312,9.92 44.64,10.624 L41.952,10.624 L41.952,8.672 L47.104,8.672 C47.296,8.672 47.456,8.608 47.456,8.512 C47.456,8.416 47.424,8.352 47.328,8.256 C46.432,7.392 46.176,7.168 45.248,6.432 C44.576,7.104 44.352,7.328 43.616,8 L41.952,8 L41.952,7.008 C42.656,6.752 42.944,6.56 42.944,6.368 C42.944,6.24 42.848,6.144 42.656,6.048 C42.944,6.08 43.2,6.08 43.296,6.08 C43.904,6.08 44.48,5.952 44.704,5.792 C44.768,5.728 44.832,5.6 44.832,5.408 C44.832,5.312 44.832,4.928 44.8,4.32 L50.432,4.32 C50.4,4.832 50.4,4.992 50.336,5.44 C50.336,5.856 50.464,5.952 50.848,5.984 C51.008,5.984 51.2,6.016 51.488,6.048 C51.616,6.816 51.648,7.264 51.648,8.224 C51.648,8.448 51.616,8.928 51.616,9.472 L50.592,9.472 C49.792,9.472 49.184,9.408 48.352,9.248 L48.544,10.304 C49.472,10.176 49.984,10.144 50.592,10.144 L51.584,10.144 C51.52,11.328 51.424,12.032 51.264,12.864 C50.464,12.512 50.112,12.352 49.184,12 L48.96,12.224 C50.144,13.312 50.816,13.92 50.944,14.08 C50.176,16.416 49.056,18.048 46.848,19.968 L47.008,20.192 C49.6,19.072 51.104,17.888 52.544,15.904 C52.96,16.512 53.216,16.96 53.504,17.536 C53.824,18.24 54.048,18.528 54.4,18.528 C55.008,18.528 55.552,17.632 55.552,16.608 C55.552,15.584 55.264,15.2 53.568,14.112 C54.048,12.864 54.272,11.904 54.464,10.144 L56.384,10.144 C56.608,13.888 56.992,15.968 57.856,17.696 C58.976,19.936 60.352,21.184 61.696,21.184 C62.4,21.184 62.912,20.64 62.912,19.872 C62.912,19.552 62.816,19.296 62.528,18.912 C62.176,18.368 62.048,18.112 62.048,17.888 C62.048,17.792 62.048,17.632 62.08,17.472 C62.112,17.376 62.144,17.248 62.176,17.024 L62.208,16.768 L62.912,13.184 L62.688,13.12 C61.408,15.712 61.408,15.712 60.704,16.864 C60.224,16 60.032,15.616 59.84,14.976 C59.488,13.76 59.296,12.384 59.296,11.36 L59.296,10.72 C60.16,10.24 60.384,10.08 60.384,9.856 C60.384,9.728 60.288,9.6 60.096,9.44 C59.136,8.736 58.848,8.512 57.856,7.936 C57.184,8.576 56.992,8.768 56.384,9.472 L54.528,9.472 C54.592,8.8 54.592,8.48 54.592,7.456 C55.424,7.168 55.68,7.008 55.68,6.72 C55.68,6.336 54.784,6.08 53.28,6.08 C52.992,6.08 52.768,6.048 52.32,6.016 C53.536,5.856 53.696,5.76 53.76,5.312 C53.728,4.832 53.728,4.832 53.728,4.32 L62.4,4.32 C62.56,4.32 62.72,4.224 62.72,4.128 C62.72,4.064 62.656,3.968 62.592,3.872 C61.056,2.72 60.576,2.4 59.072,1.376 C58.112,2.304 57.792,2.624 56.768,3.648 L53.728,3.648 L53.728,2.496 C54.656,2.272 54.912,2.112 54.912,1.824 C54.912,1.376 54.624,1.344 50.304,0.96 C50.4,1.664 50.432,2.176 50.432,3.648 L44.8,3.648 L44.8,2.4 C45.696,2.112 45.952,1.984 45.952,1.664 C45.952,1.344 45.408,1.184 43.424,1.056 C41.856,0.928 41.856,0.928 41.376,0.896 C41.536,1.728 41.568,2.208 41.568,2.976 C41.568,3.072 41.568,3.168 41.536,3.648 L36.768,3.648 C35.648,3.648 34.784,3.584 33.504,3.36 L33.728,4.512 C34.912,4.352 35.584,4.32 36.768,4.32 L41.504,4.32 C41.504,4.992 41.472,5.408 41.472,5.568 L41.536,5.856 C41.312,5.856 41.312,5.856 40.832,5.792 C39.744,5.664 39.68,5.664 38.848,5.632 C38.912,6.24 38.944,6.528 38.944,7.008 L38.944,8 L36.96,8 C36,8 35.424,7.936 34.464,7.744 L34.656,8.832 C35.648,8.704 36.16,8.672 36.96,8.672 L38.944,8.672 L38.944,10.624 L35.84,10.624 C34.848,10.624 34.208,10.56 33.312,10.336 L33.536,11.424 C34.496,11.328 35.008,11.296 35.84,11.296 L36.704,11.296 C36.32,13.312 35.616,14.208 33.248,15.52 L33.344,15.776 C37.408,14.88 38.944,13.76 39.648,11.296 L41.472,11.296 L41.472,13.248 C41.472,13.696 41.504,13.792 41.632,14.016 C41.216,13.984 40.992,13.952 40.512,13.952 C40.064,13.92 39.616,13.888 38.816,13.856 C38.912,14.528 38.944,14.848 38.944,15.392 L38.944,16.128 L37.12,16.128 C36.192,16.128 35.552,16.064 34.624,15.904 L34.848,16.992 C35.84,16.832 36.352,16.8 37.12,16.8 L38.944,16.8 L38.944,18.848 C38.336,18.88 37.856,18.912 37.568,18.944 C36.832,19.008 36.32,19.04 36.192,19.04 C34.848,19.072 34.848,19.072 34.784,19.072 C34.688,19.072 34.4,19.072 33.952,19.04 L33.6,19.04 C34.528,22.4 34.656,22.72 35.008,22.72 C35.328,22.72 35.456,22.432 35.488,21.696 C43.904,19.584 44.896,19.328 47.52,18.304 L47.456,18.048 C44.192,18.464 44.192,18.464 42.72,18.56 C42.208,18.592 42.208,18.592 41.952,18.624 L41.952,16.8 L47.296,16.8 C47.488,16.8 47.648,16.736 47.648,16.608 C47.648,16.544 47.616,16.448 47.52,16.352 C46.592,15.584 46.304,15.36 45.344,14.656 C44.64,15.264 44.448,15.456 43.712,16.128 L41.952,16.128 L41.952,15.072 C42.528,14.912 42.784,14.752 42.816,14.464 C43.072,14.528 43.168,14.528 43.456,14.528 L45.056,14.528 C45.44,14.56 45.952,14.56 46.016,14.56 C47.744,14.56 48.48,14.24 48.48,13.504 C48.48,13.184 48.32,12.992 48.064,12.864 C47.424,12.64 47.392,12.608 47.392,12.192 L47.392,11.296 Z M47.04,11.296 C46.368,12.832 46.304,12.896 45.536,12.896 C44.8,12.896 44.256,12.864 44.16,12.8 C44,12.736 44,12.704 44,12.416 L44,11.296 L47.04,11.296 Z M61.728,24.384 C61.888,24.384 62.048,24.32 62.048,24.224 C62.048,24.16 61.984,24.064 61.92,23.968 C60.576,22.848 60.16,22.496 58.784,21.536 C57.824,22.432 57.504,22.72 56.448,23.712 L37.792,23.712 C36.384,23.712 35.616,23.648 34.08,23.392 L34.368,24.608 C35.712,24.448 36.448,24.384 37.792,24.384 L42.848,24.384 C42.528,25.664 42.272,26.496 41.952,27.264 L39.872,27.264 C38.24,27.264 37.312,27.232 36.16,27.104 C37.088,30.464 37.376,31.2 37.76,31.2 C38.016,31.2 38.176,30.912 38.336,30.144 C44.192,29.504 50.528,28.512 54.528,27.616 C55.456,28.416 56.128,29.152 56.672,29.92 C57.152,30.592 57.408,30.784 57.824,30.784 C58.624,30.784 59.36,29.792 59.36,28.672 C59.36,27.552 58.528,26.688 56.96,26.144 C55.52,25.664 55.104,25.568 51.136,24.896 L51.072,25.152 C52.48,25.984 52.672,26.112 53.408,26.656 C49.12,26.976 45.728,27.168 43.936,27.2 C44.96,26.4 46.304,25.152 46.976,24.384 L61.728,24.384 Z M42.72,21.024 C41.6,21.024 40.736,20.96 39.744,20.768 L39.968,21.856 C41.088,21.728 41.696,21.696 42.72,21.696 L57.056,21.696 C57.28,21.696 57.44,21.6 57.44,21.504 C57.44,21.44 57.408,21.376 57.344,21.28 C56.064,20.224 55.68,19.936 54.368,18.976 C53.408,19.84 53.12,20.096 52.192,21.024 L42.72,21.024 Z M85.216,22.016 L85.216,26.624 C85.216,26.88 85.088,26.976 84.736,27.008 C80.672,26.88 80.672,26.88 78.976,26.784 L78.976,27.104 L79.712,27.328 C80.416,27.52 80.8,27.616 80.832,27.648 C82.176,28.032 82.624,28.256 83.072,28.736 C83.36,29.056 83.584,29.664 83.616,30.24 C83.648,30.528 83.712,30.624 83.968,30.624 C84.48,30.624 85.856,30.4 86.56,30.176 C88.064,29.728 88.576,29.12 88.672,27.712 C88.576,25.344 88.576,24.064 88.576,22.88 L88.576,22.016 L95.008,22.016 C95.168,22.016 95.328,21.92 95.328,21.824 C95.328,21.76 95.264,21.664 95.136,21.568 C93.696,20.384 93.28,20.032 91.936,18.976 C90.976,20 90.656,20.32 89.728,21.344 L88.576,21.344 L88.576,18.208 L89.504,18.208 L89.504,18.496 C89.504,18.88 89.632,18.976 90.112,18.976 C92.384,18.976 92.768,18.848 92.768,18.208 C92.704,17.184 92.704,16.672 92.704,15.808 L92.704,14.272 C92.928,14.144 93.088,14.048 93.216,13.984 C93.376,13.888 93.504,13.792 93.632,13.728 C93.728,13.664 93.824,13.504 93.824,13.44 C93.824,13.344 93.76,13.248 93.568,13.088 C92.416,12.256 92.064,12 90.912,11.264 C90.208,11.968 90.016,12.192 89.376,12.928 L83.968,12.928 C82.432,12.224 81.984,12 80.416,11.328 C80.512,12.672 80.544,13.216 80.544,14.56 C80.544,15.904 80.48,17.376 80.416,18.976 C80.544,19.392 80.768,19.52 81.536,19.52 C82.24,19.52 82.784,19.456 83.232,19.328 C83.488,19.232 83.584,19.104 83.68,18.752 L83.68,18.208 L85.216,18.208 L85.216,21.344 L68.256,21.344 L67.84,21.312 C67.968,21.184 68.032,21.12 68.064,20.8 C68.064,20.672 68.128,20.512 68.16,20.288 C73.92,19.008 76.352,18.272 80.064,16.768 L80.032,16.384 C78.112,16.672 76.608,16.864 74.624,17.024 L74.624,13.6 L79.904,13.6 C80.096,13.6 80.224,13.536 80.224,13.408 C80.224,13.344 80.16,13.28 80.096,13.184 C78.88,12.16 78.496,11.872 77.248,10.912 C76.48,11.776 76.256,12.032 75.552,12.928 L68.48,12.928 C67.904,12.928 66.976,12.832 66.112,12.704 L66.336,13.76 C66.592,13.728 67.296,13.696 68.48,13.6 L71.36,13.6 L71.36,17.216 C67.712,17.44 67.712,17.44 67.264,17.44 C67.008,17.44 66.656,17.44 66.112,17.408 C67.2,21.024 67.2,21.024 67.456,21.312 C66.208,21.216 66.176,21.216 65.472,21.088 L65.664,22.208 C66.848,22.08 67.648,22.016 68.192,22.016 L85.216,22.016 Z M83.68,13.6 L89.504,13.6 L89.504,17.536 L83.68,17.536 L83.68,13.6 Z M86.656,6.88 L86.656,9.728 L71.936,9.728 C71.104,9.728 69.984,9.632 69.12,9.504 L69.28,10.56 C70.112,10.464 71.232,10.4 71.936,10.4 L86.656,10.4 L86.656,11.104 C86.688,11.52 86.848,11.616 87.584,11.616 C89.6,11.616 90.08,11.456 90.144,10.688 C90.048,7.744 90.048,7.68 90.048,4.224 C91.168,3.52 91.168,3.52 91.168,3.296 C91.168,3.168 91.104,3.104 90.944,2.976 C89.824,2.112 89.472,1.824 88.256,0.992 C87.392,1.792 87.136,2.048 86.336,2.88 L72.032,2.88 C71.392,2.88 70.208,2.752 69.376,2.592 L69.504,3.712 C70.176,3.616 71.392,3.552 72.032,3.552 L86.656,3.552 L86.656,6.208 L72.544,6.208 C71.648,6.208 70.912,6.144 69.888,5.92 L70.016,7.008 C70.912,6.944 71.936,6.88 72.512,6.88 L86.656,6.88 Z M71.232,22.464 C72.736,23.744 73.856,25.28 74.848,27.424 C75.296,28.448 75.296,28.448 75.488,28.672 C75.616,28.8 75.84,28.896 76,28.896 C76.96,28.896 77.888,27.52 77.888,26.112 C77.888,25.248 77.376,24.576 76.224,23.904 C75.36,23.424 74.272,23.008 71.488,22.208 L71.232,22.464 Z M113.536,6.368 C114.176,5.92 114.56,5.184 114.56,4.416 C114.56,3.104 113.152,2.176 109.472,0.96 L109.216,1.184 C110.4,2.528 110.688,3.136 111.232,5.44 C111.36,5.952 111.424,6.112 111.744,6.368 L107.936,6.368 C107.36,6.368 106.272,6.272 105.696,6.176 L105.984,7.2 C106.432,7.136 107.424,7.04 107.936,7.04 L113.92,7.04 C113.824,8.032 113.6,9.088 113.248,10.24 L111.84,10.24 C110.24,9.376 109.728,9.152 108.032,8.448 C108.192,10.56 108.224,12.224 108.224,17.152 C108.224,20.352 108.192,21.792 108.128,24.8 C108.16,25.28 108.352,25.408 109.088,25.408 C111.168,25.408 111.488,25.312 111.52,24.704 L111.52,23.872 L120.48,23.872 L120.48,24.8 C120.544,25.216 120.704,25.312 121.344,25.312 C122.112,25.312 123.04,25.216 123.392,25.088 C123.776,24.928 123.904,24.768 123.936,24.384 C123.808,20.928 123.776,18.592 123.776,14.944 L123.776,11.616 C124.448,11.264 124.8,10.976 124.8,10.752 C124.8,10.656 124.704,10.528 124.512,10.304 C123.424,9.472 123.072,9.216 121.856,8.416 C121.056,9.184 120.832,9.44 120.032,10.24 L114.752,10.24 C115.968,9.248 117.152,8.192 118.368,7.04 L126.72,7.04 C126.976,7.04 127.072,6.976 127.072,6.816 C127.072,6.752 126.976,6.624 126.848,6.496 C125.408,5.344 124.96,4.992 123.488,3.968 C122.592,5.024 122.304,5.344 121.472,6.368 L117.792,6.368 C118.88,5.6 118.88,5.6 121.792,3.264 C123.104,3.072 123.296,3.008 123.296,2.656 C123.296,2.496 123.2,2.368 122.976,2.24 C122.592,2.048 120.736,1.472 118.4,0.832 C118.112,2.304 117.536,4 116.48,6.368 L113.536,6.368 Z M111.52,14.272 L111.52,10.912 L120.48,10.912 L120.48,14.272 L111.52,14.272 Z M120.48,14.944 L120.48,18.656 L111.52,18.656 L111.52,14.944 L120.48,14.944 Z M120.48,19.328 L120.48,23.2 L111.52,23.2 L111.52,19.328 L120.48,19.328 Z M98.08,1.888 C99.776,3.808 100.48,5.152 101.376,8.032 C101.728,9.088 101.76,9.184 101.888,9.376 C102.048,9.664 102.272,9.824 102.528,9.824 C103.68,9.824 104.992,8.256 104.992,6.848 C104.992,4.992 103.264,3.68 98.368,1.664 L98.08,1.888 Z M97.248,15.264 C97.824,15.2 98.496,15.136 98.912,15.136 L101.248,15.136 L101.248,23.904 C99.808,24.768 98.112,25.6 96.928,26.016 C99.072,30.464 99.072,30.464 99.424,30.464 C99.712,30.464 99.84,30.208 99.872,29.664 C99.872,29.504 99.872,29.28 99.904,28.992 C101.536,27.104 103.072,25.056 104,23.616 C104.672,25.568 105.152,26.464 106.048,27.36 C107.904,29.216 110.048,29.856 114.624,29.856 C118.24,29.856 119.232,29.856 124.832,29.696 C125.28,29.696 125.376,29.6 125.44,29.216 C125.76,27.648 126.208,27.04 127.584,26.24 L127.552,25.952 C120.992,26.528 118.272,26.688 114.752,26.688 C110.592,26.688 108.736,26.496 107.072,25.92 C105.984,25.536 105.344,24.928 104.704,23.616 L104.704,16 C105.632,15.392 105.76,15.296 105.792,15.008 L105.792,14.976 C105.792,14.848 105.696,14.72 105.536,14.528 C104.448,13.632 104.064,13.376 102.816,12.544 C102.016,13.344 101.792,13.6 101.056,14.464 L98.912,14.464 C98.496,14.464 97.6,14.368 97.024,14.24 L97.248,15.264 Z M161.28,4.512 C160.928,3.84 160.032,3.36 157.824,2.592 L157.632,2.816 C158.24,3.872 158.336,4.192 158.624,5.856 C158.784,6.72 158.88,6.848 159.328,7.008 C158.912,7.488 158.688,7.744 158.112,8.448 L156.352,8.448 L156.384,3.136 C157.056,2.88 157.312,2.72 157.312,2.464 C157.312,2.016 156.928,1.952 152.992,1.536 C153.184,3.648 153.184,3.648 153.184,8.448 L150.912,8.448 C150.272,8.448 149.568,8.384 148.704,8.192 L148.928,9.248 C149.888,9.152 150.304,9.12 150.816,9.12 L153.184,9.12 L153.216,13.024 C152.896,12.8 152.672,12.736 151.168,12.48 C150.688,12.384 149.952,12.256 148.992,12.064 C149.024,12.448 149.024,12.768 149.024,12.928 C149.024,14.592 148.768,17.408 148.352,20.32 C147.936,23.392 147.552,25.216 146.912,27.424 L147.296,27.616 C148.64,25.536 149.44,23.968 150.272,21.632 C151.04,19.52 151.36,18.112 152.128,13.856 C152.832,13.696 152.928,13.664 153.216,13.44 C153.184,22.4 153.184,22.4 153.024,29.6 L153.024,29.76 C153.024,30.336 153.312,30.496 154.272,30.496 C155.2,30.496 156,30.336 156.288,30.08 C156.448,29.952 156.512,29.728 156.512,29.344 C156.416,24.224 156.352,18.208 156.352,14.976 L156.352,9.12 L162.336,9.12 C162.528,9.12 162.688,9.056 162.688,8.928 C162.688,8.864 162.624,8.736 162.528,8.64 C161.504,7.744 161.184,7.488 160.32,6.752 C160.928,6.336 161.28,5.824 161.376,5.184 L169.344,5.184 C169.504,5.184 169.664,5.12 169.664,4.992 C169.664,4.928 169.6,4.8 169.472,4.672 C168.16,3.52 167.744,3.168 166.368,2.112 C165.664,2.912 164.992,3.712 164.288,4.512 L161.28,4.512 Z M166.72,11.712 L169.792,11.712 C170.016,11.712 170.144,11.616 170.144,11.52 C170.144,11.424 170.08,11.328 169.952,11.2 C168.672,10.016 168.256,9.664 166.944,8.608 L164.896,11.04 L161.76,11.04 C161.12,11.04 160.512,10.944 159.776,10.784 L160,11.872 C160.704,11.744 161.12,11.712 161.664,11.712 L163.424,11.712 L163.424,26.496 C163.424,26.848 163.328,26.944 162.944,26.944 C160.832,26.912 160.128,26.88 158.112,26.688 L158.08,27.072 C161.152,27.84 161.856,28.352 162.016,29.888 C162.08,30.432 162.144,30.496 162.464,30.496 C162.88,30.496 163.84,30.368 164.352,30.24 C166.144,29.76 166.72,29.12 166.784,27.392 C166.752,22.528 166.72,19.872 166.72,19.36 L166.72,11.712 Z M142.784,21.632 C142.784,23.104 142.72,25.664 142.624,29.728 C142.624,30.4 142.848,30.56 143.872,30.56 C145.6,30.56 146.048,30.336 146.048,29.472 L146.048,26.112 C146.016,23.456 146.016,23.296 146.016,21.184 L146.016,15.616 C146.848,15.36 147.072,15.232 147.072,15.008 C147.072,14.688 146.848,14.592 145.408,14.336 C146.304,13.248 146.88,12.448 148.128,10.56 C149.088,10.368 149.408,10.24 149.408,9.952 C149.408,9.6 149.056,9.44 145.344,8.096 C144.864,9.664 144.256,11.04 143.232,13.056 C141.952,15.52 140.896,17.088 139.168,19.2 L139.392,19.488 C140.928,18.528 141.536,18.08 142.784,16.992 L142.784,21.632 Z M139.808,10.336 C143.52,8.352 145.248,6.976 148.192,3.552 C149.248,3.52 149.696,3.392 149.696,3.04 C149.696,2.72 149.376,2.56 147.232,1.792 C146.784,1.632 146.048,1.376 145.152,1.024 C144.064,4.128 142.304,6.976 139.552,10.08 L139.808,10.336 Z M157.12,12.48 C158.016,15.552 158.496,19.296 158.56,23.008 C158.56,24.704 158.656,24.992 159.168,24.992 C160.224,24.992 161.504,23.104 161.504,21.536 C161.504,19.584 159.84,15.808 157.44,12.288 L157.12,12.48 Z M202.304,25.856 C198.656,25.44 196.608,24.864 194.144,23.488 C195.776,21.664 196.832,20.096 198.528,16.928 C199.648,16.608 200,16.448 200,16.16 C200,16.032 199.904,15.872 199.584,15.616 C198.304,14.592 197.888,14.304 196.544,13.312 C195.776,14.08 195.552,14.304 194.816,15.136 L187.136,15.136 C186.368,15.136 185.568,15.04 184.608,14.88 L184.8,16.032 C185.536,15.904 185.792,15.872 186.88,15.808 C187.648,18.944 188.608,21.056 190.368,23.424 C187.584,26.432 184.928,28.416 181.216,30.304 L181.344,30.72 C186.304,29.312 189.184,27.904 192.128,25.44 C193.92,27.168 195.776,28.48 198.112,29.6 C198.624,29.856 199.136,30.048 199.296,30.048 C199.488,30.048 199.616,29.952 199.648,29.76 C200.064,28.032 200.96,26.848 202.304,26.272 L202.304,25.856 Z M195.008,15.808 C194.08,18.144 193.024,20.096 191.712,21.792 C189.664,20 188.384,18.176 187.52,15.808 L195.008,15.808 Z M172.928,4 C173.728,3.872 174.08,3.84 174.88,3.84 L183.552,3.84 C183.744,3.84 183.872,3.776 183.872,3.648 C183.872,3.616 183.808,3.456 183.744,3.36 C182.496,2.272 182.112,1.952 180.8,0.928 L178.88,3.168 L174.944,3.168 C174.24,3.168 173.504,3.072 172.736,2.912 L172.928,4 Z M172.064,8.16 C172.928,7.968 173.44,7.936 174.176,7.936 L184.832,7.936 C185.056,7.936 185.184,7.872 185.184,7.744 C185.184,7.68 185.12,7.584 184.992,7.456 C183.648,6.336 183.2,5.984 181.792,4.928 C180.928,5.92 180.672,6.24 179.808,7.264 L174.304,7.264 C173.472,7.264 172.64,7.168 171.84,6.976 L172.064,8.16 Z M173.216,12.192 C174.08,12.032 174.528,12 175.168,12 L183.424,12 C183.648,12 183.776,11.936 183.776,11.808 C183.776,11.744 183.744,11.648 183.616,11.52 C182.4,10.464 182.016,10.144 180.736,9.12 C179.744,10.176 179.744,10.176 178.752,11.328 L175.2,11.328 C174.56,11.328 173.792,11.232 172.992,11.072 L173.216,12.192 Z M173.28,16.288 C174.112,16.16 174.56,16.128 175.232,16.128 L183.2,16.128 C183.424,16.128 183.552,16.064 183.552,15.936 C183.552,15.84 183.488,15.776 183.36,15.616 C182.144,14.528 181.76,14.208 180.48,13.216 C179.648,14.176 179.392,14.464 178.56,15.456 L175.264,15.456 C174.592,15.456 173.92,15.36 173.056,15.2 L173.28,16.288 Z M176.416,27.936 L179.712,27.936 L179.712,28.48 C179.712,28.992 179.904,29.12 180.704,29.12 C181.344,29.12 182.304,28.992 182.592,28.896 C182.912,28.768 183.008,28.608 183.008,28.224 C182.944,25.6 182.944,23.264 182.912,21.28 C183.712,20.8 183.936,20.608 183.936,20.352 C183.936,20.192 183.84,20.032 183.552,19.776 C182.56,18.976 182.24,18.72 181.12,17.92 C180.448,18.688 180.256,18.944 179.584,19.776 L176.704,19.776 C175.168,18.944 174.688,18.688 173.12,17.92 C173.248,20.8 173.248,21.28 173.248,23.136 C173.248,25.408 173.248,26.144 173.12,29.824 C173.12,30.368 173.312,30.464 174.208,30.464 C176.032,30.464 176.384,30.336 176.416,29.76 L176.416,27.936 Z M176.416,20.448 L179.712,20.448 L179.712,27.264 L176.416,27.264 L176.416,20.448 Z M183.36,14.848 C185.888,13.6 187.072,12.672 188.128,11.296 C189.344,9.6 189.696,8.032 189.856,3.712 L193.312,3.712 L193.312,8.928 C193.312,8.992 193.312,9.44 193.28,10.144 L193.28,11.2 C193.28,11.936 193.504,12.384 193.984,12.608 C194.464,12.864 195.264,12.928 197.632,12.928 C199.616,12.928 200.48,12.832 201.12,12.576 C201.696,12.352 202.048,11.808 202.048,11.168 C202.048,10.56 201.76,10.144 201.12,9.888 C200.832,9.728 200.736,9.632 200.736,9.408 L200.736,9.152 L200.864,5.216 L200.512,5.184 C199.808,7.744 199.296,9.216 198.976,9.728 C198.72,10.144 198.496,10.208 197.536,10.208 C196.608,10.208 196.512,10.176 196.512,9.696 L196.512,4.544 C197.408,4.096 197.632,3.904 197.632,3.648 C197.632,3.52 197.536,3.36 197.28,3.136 C196.224,2.304 195.904,2.016 194.816,1.184 C194.048,1.984 193.824,2.24 193.152,3.04 L190.144,3.04 C188.544,2.144 188.032,1.888 186.336,1.088 C186.496,2.304 186.528,2.816 186.528,3.744 C186.528,6.048 186.272,8.384 185.888,9.856 C185.376,11.84 184.704,12.992 183.136,14.624 L183.36,14.848 Z M215.296,8.672 L215.296,9.632 C215.328,10.944 215.328,11.328 215.328,11.968 C215.328,14.784 215.232,18.368 215.136,19.392 L213.728,19.392 L213.728,12.096 C214.272,11.968 214.496,11.84 214.496,11.584 C214.496,11.296 213.984,11.104 212.992,11.04 C212.96,11.04 212.352,10.976 211.552,10.88 C211.424,10.848 211.232,10.848 210.976,10.816 C211.072,11.936 211.104,12.48 211.104,14.656 C211.104,17.504 211.072,18.4 210.976,21.568 C211.008,21.952 211.2,22.048 211.904,22.048 C212.64,22.048 213.44,21.92 213.632,21.76 C213.696,21.728 213.728,21.6 213.728,21.44 L213.728,20.064 L215.072,20.064 C214.848,22.144 214.528,23.488 213.888,25.056 C212.992,27.136 211.936,28.64 210.24,30.272 L210.4,30.496 C213.12,29.088 214.688,27.712 215.936,25.792 C216.992,24.096 217.536,22.528 217.888,20.064 L219.872,20.064 L219.872,21.44 C219.904,21.824 220.032,21.92 220.48,21.92 C221.216,21.92 222.24,21.792 222.464,21.632 C222.56,21.568 222.624,21.44 222.624,21.152 C222.528,16.704 222.528,16.704 222.528,16 C222.528,15.296 222.528,13.312 222.56,12.192 C223.104,12.032 223.296,11.872 223.296,11.616 C223.296,11.328 223.008,11.2 222.208,11.104 C221.696,11.04 221.696,11.04 221.12,10.976 C220.16,10.88 220.16,10.88 219.68,10.784 C219.84,12.416 219.872,12.704 219.872,13.248 L219.872,19.392 L217.984,19.392 C218.208,17.504 218.336,14.144 218.336,10.208 L218.336,8.672 L223.488,8.672 C223.712,8.672 223.84,8.576 223.84,8.416 C223.84,8.384 223.776,8.288 223.712,8.16 C222.72,7.136 222.4,6.848 221.312,5.888 L219.68,8 L217.76,8 C217.888,7.84 217.984,7.744 218.304,7.424 C219.296,6.528 220.672,4.96 221.632,3.712 C222.592,3.68 223.008,3.52 223.008,3.168 C223.008,2.848 222.24,2.496 218.752,1.248 C218.528,3.2 217.792,5.632 216.768,8 L212.096,8 C211.392,8 210.88,7.936 210.272,7.808 L210.528,8.8 C211.264,8.704 211.648,8.672 212.096,8.672 L215.296,8.672 Z M229.472,18.656 L229.472,26.336 C229.472,26.688 229.376,26.784 229.056,26.784 L228.928,26.784 C226.112,26.656 226.112,26.656 224.992,26.592 L224.992,27.008 C226.528,27.36 227.072,27.552 227.68,28 C228.128,28.32 228.416,28.864 228.48,29.408 C228.544,29.984 228.64,30.112 229.056,30.112 C229.888,30.112 230.976,29.792 231.68,29.344 C232.448,28.832 232.672,28.352 232.672,27.2 C232.672,25.76 232.64,25.408 232.64,24.384 C232.576,22.656 232.576,22.08 232.576,20.16 L232.576,4.704 C232.736,4.576 232.736,4.576 233.248,4.256 C233.376,4.16 233.504,3.968 233.504,3.776 C233.504,3.648 233.408,3.52 233.152,3.296 C232.192,2.528 231.872,2.272 230.816,1.536 C230.144,2.272 229.92,2.528 229.248,3.328 L227.168,3.328 C225.728,2.4 225.28,2.112 223.744,1.312 C223.872,2.368 223.904,5.056 223.904,10.688 C223.904,17.056 223.712,20.256 223.168,22.56 C222.528,25.376 221.44,27.616 219.52,30.176 L219.744,30.432 C221.792,28.992 223.264,27.456 224.32,25.632 C225.568,23.552 226.08,21.984 226.592,18.656 L229.472,18.656 Z M226.912,10.528 C226.976,5.824 226.976,5.824 226.976,5.408 L226.976,4 L229.504,4 L229.504,10.528 L226.912,10.528 Z M229.504,11.2 L229.504,17.984 L226.656,17.984 C226.848,15.552 226.848,15.2 226.912,11.2 L229.504,11.2 Z M204.832,2.016 C206.048,3.552 206.624,4.8 206.976,6.624 C207.136,7.392 207.168,7.488 207.296,7.68 C207.424,7.808 207.712,7.936 207.936,7.936 C208.992,7.936 210.08,6.688 210.08,5.44 C210.08,4.672 209.6,3.968 208.672,3.328 C207.904,2.784 206.912,2.368 205.024,1.76 L204.832,2.016 Z M203.36,9.248 C204.48,10.72 205.088,12.064 205.376,13.792 C205.536,14.816 205.792,15.168 206.336,15.168 C207.424,15.168 208.48,13.824 208.48,12.48 C208.48,11.168 206.944,10.08 203.52,8.96 L203.36,9.248 Z M211.264,1.696 C212.352,3.168 212.768,4.064 213.152,5.792 C213.472,7.296 213.472,7.296 213.632,7.552 C213.76,7.712 214.016,7.84 214.24,7.84 C215.104,7.84 216.096,6.56 216.096,5.44 C216.096,3.968 214.656,2.72 211.456,1.44 L211.264,1.696 Z M203.456,21.12 C204.32,21.376 204.64,21.536 204.992,21.824 C205.472,22.272 205.728,23.104 205.728,24.288 C205.728,25.312 205.568,26.656 205.344,27.744 C205.216,28.384 205.152,28.928 205.152,29.312 C205.152,29.888 205.536,30.208 206.24,30.208 C207.328,30.208 208.32,29.6 208.832,28.672 C209.056,28.192 209.28,27.488 209.28,27.072 C209.28,26.368 209.024,25.344 208.576,24.16 C208,22.624 208,22.624 208,22.112 C208,21.824 208,21.824 208.224,20.96 L210.688,9.504 L210.368,9.44 C209.408,12.288 207.136,18.336 206.688,19.264 C206.464,19.744 206.304,20.096 206.272,20.192 C206.016,20.832 205.824,21.056 205.472,21.056 C205.12,21.056 204.672,20.992 204.128,20.832 C204,20.832 203.84,20.768 203.616,20.736 L203.456,21.12 Z M260.64,15.136 L260.64,18.944 L258.048,18.944 C256.608,18.176 256.16,17.984 254.656,17.312 C254.752,19.008 254.784,20.032 254.784,23.392 C254.784,25.6 254.784,25.6 254.72,29.408 L254.72,29.472 C254.72,29.888 254.944,30.016 255.648,30.016 C257.408,30.016 257.856,29.856 257.856,29.216 L257.856,19.616 L260.64,19.616 L260.64,29.472 C260.64,30.176 260.768,30.272 261.728,30.272 C263.616,30.272 264.096,30.112 264.096,29.376 L264.096,29.28 C263.936,23.488 263.904,19.488 263.904,11.168 L263.904,3.36 C264.96,3.008 265.216,2.848 265.216,2.56 C265.216,2.144 264.928,2.08 260.512,1.568 C260.608,3.072 260.608,3.072 260.64,9.824 L258.112,9.824 L258.112,3.04 C258.912,2.752 259.232,2.56 259.232,2.336 C259.232,1.952 258.848,1.888 255.008,1.472 C255.104,2.496 255.104,3.008 255.104,8.768 C255.104,9.568 255.104,10.24 255.072,11.712 C255.072,12.288 255.2,12.352 256.16,12.352 C256.992,12.352 257.728,12.224 257.952,12.064 C258.048,11.968 258.112,11.84 258.112,11.584 L258.112,10.496 L260.64,10.496 L260.64,14.464 L247.648,14.464 C247.68,12.64 247.712,11.872 247.744,10.496 L250.208,10.496 L250.208,11.712 C250.208,12.256 250.336,12.352 251.072,12.352 C252.928,12.352 253.248,12.224 253.248,11.552 C253.216,10.24 253.216,10.24 253.216,3.04 C254.08,2.752 254.336,2.592 254.336,2.336 C254.336,2.016 253.92,1.888 252.032,1.696 C251.584,1.632 250.944,1.568 250.112,1.44 C250.176,2.496 250.208,2.976 250.208,3.744 L250.208,9.824 L247.744,9.824 C247.776,9.248 247.776,9.248 247.776,6.496 C247.776,5.344 247.776,4.256 247.808,3.264 C248.672,2.912 248.928,2.784 248.928,2.528 C248.928,2.4 248.832,2.272 248.704,2.208 C248.48,2.112 248.352,2.08 246.4,1.856 C245.952,1.792 245.248,1.696 244.352,1.568 C244.512,3.392 244.544,4.768 244.544,8.736 C244.544,15.2 244.352,19.424 243.904,22.624 C243.392,26.08 242.848,27.872 241.44,30.4 L241.728,30.656 C243.776,28.736 244.704,27.488 245.76,25.216 C246.528,23.488 246.976,21.824 247.264,19.616 L249.312,19.616 L249.312,24.064 C249.312,26.624 249.312,26.624 249.248,29.408 C249.248,29.92 249.44,30.016 250.432,30.016 C252.096,30.016 252.448,29.856 252.448,29.152 C252.416,28.192 252.416,27.616 252.416,27.2 L252.416,20.16 C253.184,19.744 253.376,19.584 253.376,19.36 C253.376,19.232 253.248,19.072 252.96,18.816 C252.032,18.112 251.712,17.888 250.72,17.152 C250.048,17.92 249.824,18.144 249.152,18.944 L247.328,18.944 C247.488,17.408 247.52,16.672 247.616,15.136 L260.64,15.136 Z M237.248,1.952 C238.656,3.52 239.52,4.928 240.064,6.528 C240.48,7.744 240.576,7.872 241.056,7.872 C241.984,7.872 243.008,6.56 243.008,5.344 C243.008,3.776 241.664,2.88 237.408,1.632 L237.248,1.952 Z M235.488,9.184 C236.256,9.952 236.576,10.336 236.928,10.944 C237.44,11.84 237.952,12.896 238.176,13.472 C238.528,14.56 238.688,14.784 239.168,14.784 C240.096,14.784 240.992,13.536 240.992,12.256 C240.992,10.72 239.84,10.016 235.616,8.864 L235.488,9.184 Z M235.616,20.768 C237.792,21.6 237.984,21.824 237.984,23.776 C237.984,25.056 237.92,25.824 237.536,28.256 C237.472,28.608 237.44,28.992 237.44,29.28 C237.44,29.856 237.792,30.176 238.432,30.176 C240.192,30.176 241.504,28.608 241.504,26.56 C241.504,25.76 241.312,24.864 240.896,23.84 C240.576,22.944 240.512,22.752 240.512,22.272 C240.512,21.792 240.576,21.344 240.832,20.416 L243.872,8.768 L243.488,8.672 C241.28,14.4 240.288,16.704 238.88,19.52 C238.336,20.576 238.24,20.672 237.76,20.672 C237.376,20.672 236.704,20.544 235.68,20.32 L235.616,20.768 Z" id="格藝尋道-術設溯淵-copy" fill="#606060"></path>
    </g>
</svg>